<svg xmlns="http://www.w3.org/2000/svg" width="153" height="54" fill="none" viewBox="0 0 153 54"><path fill="#2563eb" d="M43.723 13.61c1.755-1.485 4.429-.216 4.429 2.079v8.938c0 1.824-.185 3.63-.535 5.401-6.162-2.56-13.315-.22-16.777 5.697l-.003.003a13.48 13.48 0 0 0 1.255 15.368 30.2 30.2 0 0 1-6.624 2.722 5.4 5.4 0 0 1-2.78 0 30.5 30.5 0 0 1-10.451-5.266 2.715 2.715 0 0 1-.297-4.05c5.887-6.023 23.115-23.575 31.783-30.893"/><path fill="#2563eb" d="M36.894 39.025c1.792-2.914 5.583-3.98 8.61-2.455q-.309.677-.65 1.34l-2.787 3.554-3.064-1.913a3.46 3.46 0 0 0-2.109-.526"/><path fill="#16a34a" d="M41.18 9.91 9.478 41.612a2.722 2.722 0 0 1-4.158-.378C1.97 36.346 0 30.568 0 24.627V12.773c0-2.215 1.674-4.726 3.726-5.563l15.041-6.157a13.83 13.83 0 0 1 10.586 0L40.262 5.51c1.81.729 2.268 3.051.918 4.401M53.642 39.671a1.433 1.433 0 0 0-1.72-1.074 1.435 1.435 0 0 0-1.076 1.719 8.7 8.7 0 0 1-.86 6.374c-2.367 4.083-7.673 5.515-11.76 3.152-4.087-2.292-5.521-7.592-3.155-11.675 2.366-4.082 7.672-5.514 11.76-3.15a1.417 1.417 0 0 0 1.935-.502 1.41 1.41 0 0 0-.502-1.934c-5.52-3.223-12.476-1.36-15.703 4.154a11.477 11.477 0 0 0 3.179 15.07 11.507 11.507 0 0 0 17.93-6.563 11.5 11.5 0 0 0-.028-5.57M37.94 41.247a1.454 1.454 0 0 0-2.208 1.521c.08.377.307.705.63.914l5.737 3.581c.237.146.51.22.789.215a1.5 1.5 0 0 0 1.147-.573l7.529-9.669c.502-.644.358-1.504-.287-2.005s-1.506-.358-2.008.286l-6.74 8.595z"/><path fill="#000" d="M146.514 22.709v5.01h-13.86v-5.01zm-11.689-10.725V39h-6.513V11.984zm16.068 0V39h-6.494V11.984zM118.94 11.984V39h-6.512V11.984zm8.127 0v5.029h-22.581v-5.029zM96.766 11.984h6.513V29.63q0 3.154-1.318 5.344-1.317 2.17-3.692 3.284t-5.585 1.113q-3.173 0-5.585-1.113-2.394-1.113-3.748-3.284-1.335-2.19-1.336-5.344V11.984h6.531V29.63q0 1.67.483 2.727.481 1.04 1.41 1.522.928.483 2.245.482 1.336 0 2.245-.482.91-.483 1.373-1.522.465-1.057.464-2.727zM69.508 17.662 62.92 39h-6.995l9.927-27.016h4.434zM74.963 39l-6.606-21.338-.853-5.678h4.49L81.977 39zm-.26-10.075v5.028h-13.86v-5.028z"/><path fill="#2563eb" d="M134.825 11.984h-6.513V39h6.513V27.719h9.574V39h6.494V11.984h-6.494V22.71h-9.574zM152.193 40.3h-9.094V29.019h-6.974v11.28h-9.113V17.014h.055v-5.029h-.055v-1.3h9.113V21.41h6.974V10.685h9.094z"/><path fill="#2563eb" d="M127.067 11.984h-22.581v5.029h7.942V39h6.512V17.013h8.127zm1.245 6.329h-8.072V40.3h-9.112V18.313h-7.849v-6.329h-.092v-1.3h25.18v1.3h-.055z"/><path fill="#2563eb" d="M88.546 29.63V11.984h-6.53V29.63l.004.39q.079 2.9 1.331 4.954 1.354 2.17 3.748 3.284 2.261 1.043 5.191 1.11l.394.003q3.01 0 5.285-.978l.3-.135q2.226-1.044 3.524-3.017l.168-.267q1.236-2.054 1.312-4.953l.006-.391V11.984h-6.513V29.63l-.007.408q-.05 1.395-.457 2.32-.464 1.039-1.373 1.52l-.234.114q-.842.37-2.01.37v-1.3c.739 0 1.264-.135 1.635-.331.321-.17.587-.444.79-.896.213-.484.356-1.198.356-2.205V10.685h9.113v1.3h-.093v5.028h.093V29.63c0 2.284-.478 4.31-1.504 6.014l-.002.004c-1.015 1.674-2.445 2.94-4.252 3.787-1.79.839-3.848 1.236-6.136 1.236-2.268 0-4.322-.398-6.13-1.233l-.004-.002c-1.817-.844-3.262-2.106-4.303-3.774l-.007-.012c-1.04-1.705-1.526-3.733-1.526-6.02V10.685h9.132V29.63c0 .996.145 1.701.361 2.18l.083.164c.2.363.451.597.748.752.391.203.923.336 1.646.336v1.3l-.324-.009q-.952-.045-1.684-.36l-.238-.114q-.928-.483-1.41-1.522-.423-.925-.475-2.319z"/><path fill="#2563eb" d="M72.9 10.685 83.842 40.3h-9.838l-1.564-5.047H65.44l-1.56 5.047h-9.815l10.881-29.615zm-7.047 1.3L55.926 39h6.995l1.557-5.047H73.4L74.963 39h7.014l-9.983-27.016zm5.99 16.94h-5.812l2.902-9.402zm-4.05-1.3h2.287l-1.145-3.7z"/></svg>