<svg xmlns="http://www.w3.org/2000/svg" width="54" height="54" fill="none" viewBox="0 0 54 54"><path fill="#2563eb" d="M43.723 13.61c1.755-1.485 4.429-.216 4.429 2.079v8.938c0 1.824-.185 3.63-.535 5.401-6.162-2.56-13.315-.22-16.777 5.697l-.003.003a13.48 13.48 0 0 0 1.255 15.368 30.2 30.2 0 0 1-6.624 2.722 5.4 5.4 0 0 1-2.78 0 30.5 30.5 0 0 1-10.451-5.266 2.715 2.715 0 0 1-.297-4.05c5.887-6.023 23.115-23.575 31.783-30.893"/><path fill="#2563eb" d="M36.894 39.025c1.792-2.914 5.583-3.98 8.61-2.455q-.309.677-.65 1.34l-2.787 3.554-3.064-1.913a3.46 3.46 0 0 0-2.109-.526"/><path fill="#16a34a" d="M41.18 9.91 9.478 41.612a2.722 2.722 0 0 1-4.158-.378C1.97 36.346 0 30.568 0 24.627V12.773c0-2.215 1.674-4.726 3.726-5.563l15.041-6.157a13.83 13.83 0 0 1 10.586 0L40.262 5.51c1.81.729 2.268 3.051.918 4.401M53.642 39.671a1.433 1.433 0 0 0-1.72-1.074 1.435 1.435 0 0 0-1.076 1.719 8.7 8.7 0 0 1-.86 6.374c-2.367 4.083-7.673 5.515-11.76 3.152-4.087-2.292-5.521-7.592-3.155-11.675 2.366-4.082 7.672-5.514 11.76-3.15a1.417 1.417 0 0 0 1.935-.502 1.41 1.41 0 0 0-.502-1.934c-5.52-3.223-12.476-1.36-15.703 4.154a11.477 11.477 0 0 0 3.179 15.07 11.507 11.507 0 0 0 17.93-6.563 11.5 11.5 0 0 0-.028-5.57M37.94 41.247a1.454 1.454 0 0 0-2.208 1.521c.08.377.307.705.63.914l5.737 3.581c.237.146.51.22.789.215a1.5 1.5 0 0 0 1.147-.573l7.529-9.669c.502-.644.358-1.504-.287-2.005s-1.506-.358-2.008.286l-6.74 8.595z"/></svg>